<?xml version="1.0" encoding="utf-8"?>
<!-- Generator: Adobe Illustrator 15.0.2, SVG Export Plug-In . SVG Version: 6.00 Build 0)  -->
<!DOCTYPE svg PUBLIC "-//W3C//DTD SVG 1.1//EN" "http://www.w3.org/Graphics/SVG/1.1/DTD/svg11.dtd">
<svg version="1.1" id="Layer_1" xmlns="http://www.w3.org/2000/svg" xmlns:xlink="http://www.w3.org/1999/xlink" x="0px" y="0px"
	 width="155.906px" height="240.945px" viewBox="0 0 155.906 240.945" enable-background="new 0 0 155.906 240.945"
	 xml:space="preserve">
<g>
	<g>
		<path fill="#FF7A52" d="M-131.276,142.207H-162.5c-3.037,0-5.5-2.463-5.5-5.5s2.463-5.5,5.5-5.5h31.224c3.037,0,5.5,2.463,5.5,5.5
			S-128.239,142.207-131.276,142.207z"/>
	</g>
	<g>
		<path fill="#227CBA" d="M-78.045,169.303h-50c-1.965,0-3.78-1.049-4.763-2.75l-25-43.301c-0.984-1.705-0.982-3.804,0.003-5.507
			l34.457-59.494c1.524-2.629,4.888-3.522,7.517-2.003c2.628,1.522,3.525,4.888,2.003,7.517l-32.863,56.741l21.822,37.797h43.648
			l21.825-37.801L-82.808,79.95c-1.52-2.631-0.618-5.994,2.013-7.513c2.629-1.519,5.993-0.619,7.513,2.013l25,43.302
			c0.983,1.702,0.982,3.798,0,5.5l-25,43.301C-74.265,168.254-76.08,169.303-78.045,169.303z"/>
	</g>
	<g>
		<path fill="#081B28" d="M-87.486,109.74h-74.982c-1.965,0-3.78-1.048-4.763-2.75l-25-43.302c-0.982-1.702-0.982-3.798,0-5.5
			l25-43.302c0.982-1.702,2.798-2.75,4.763-2.75h50c1.965,0,3.78,1.048,4.763,2.75l25,43.302c0.98,1.697,0.983,3.789,0.007,5.489
			l-15.599,27.164c-1.513,2.634-4.875,3.545-7.509,2.03c-2.634-1.513-3.543-4.874-2.03-7.509l14.021-24.417l-21.829-37.81h-43.648
			l-21.825,37.802l21.825,37.802h71.807c3.037,0,5.5,2.463,5.5,5.5S-84.449,109.74-87.486,109.74z"/>
	</g>
	<g>
		<path fill="#227CBA" d="M-78.045,82.7h-31.224c-3.037,0-5.5-2.463-5.5-5.5s2.463-5.5,5.5-5.5h31.224c3.037,0,5.5,2.463,5.5,5.5
			S-75.008,82.7-78.045,82.7z"/>
	</g>
	<g>
		<path fill="#FF7A52" d="M-112.5,228.809h-50c-1.965,0-3.78-1.047-4.763-2.75l-25-43.301c-0.982-1.701-0.983-3.797,0-5.5l25-43.301
			c1.519-2.633,4.882-3.535,7.513-2.014c2.631,1.52,3.532,4.883,2.013,7.514l-23.412,40.551l21.825,37.801h43.648l21.822-37.797
			l-32.863-56.74c-1.522-2.629-0.625-5.995,2.003-7.517c2.631-1.521,5.993-0.626,7.517,2.003l34.457,59.495
			c0.985,1.703,0.987,3.803,0.003,5.506l-25,43.301C-108.72,227.762-110.535,228.809-112.5,228.809z"/>
	</g>
</g>
<g>
	<g>
		<path fill="#081B28" d="M66.949,142.207H35.726c-3.037,0-5.5-2.463-5.5-5.5s2.463-5.5,5.5-5.5h31.224c3.037,0,5.5,2.463,5.5,5.5
			S69.986,142.207,66.949,142.207z"/>
	</g>
	<g>
		<path fill="#081B28" d="M120.181,169.303h-50c-1.965,0-3.78-1.049-4.763-2.75l-25-43.301c-0.984-1.705-0.982-3.804,0.003-5.507
			L74.878,58.25c1.524-2.629,4.888-3.522,7.517-2.003c2.628,1.522,3.525,4.888,2.003,7.517l-32.863,56.741l21.822,37.797h43.648
			l21.825-37.801L115.418,79.95c-1.52-2.631-0.618-5.994,2.013-7.513c2.629-1.519,5.993-0.619,7.513,2.013l25,43.302
			c0.983,1.702,0.982,3.798,0,5.5l-25,43.301C123.961,168.254,122.146,169.303,120.181,169.303z"/>
	</g>
	<g>
		<path fill="#081B28" d="M110.739,109.74H35.757c-1.965,0-3.78-1.048-4.763-2.75l-25-43.302c-0.982-1.702-0.982-3.798,0-5.5
			l25-43.302c0.982-1.702,2.798-2.75,4.763-2.75h50c1.965,0,3.78,1.048,4.763,2.75l25,43.302c0.98,1.697,0.983,3.789,0.007,5.489
			L99.928,90.841c-1.513,2.634-4.875,3.545-7.509,2.03c-2.634-1.513-3.543-4.874-2.03-7.509l14.021-24.417l-21.829-37.81H38.933
			L17.107,60.938L38.933,98.74h71.807c3.037,0,5.5,2.463,5.5,5.5S113.776,109.74,110.739,109.74z"/>
	</g>
	<g>
		<path fill="#081B28" d="M120.181,82.7H88.957c-3.037,0-5.5-2.463-5.5-5.5s2.463-5.5,5.5-5.5h31.224c3.037,0,5.5,2.463,5.5,5.5
			S123.218,82.7,120.181,82.7z"/>
	</g>
	<g>
		<path fill="#081B28" d="M85.726,228.809h-50c-1.965,0-3.78-1.047-4.763-2.75l-25-43.301c-0.982-1.701-0.983-3.797,0-5.5l25-43.301
			c1.519-2.633,4.882-3.535,7.513-2.014c2.631,1.52,3.532,4.883,2.013,7.514l-23.412,40.551l21.825,37.801H82.55l21.822-37.797
			l-32.863-56.74c-1.522-2.629-0.625-5.995,2.003-7.517c2.631-1.521,5.993-0.626,7.517,2.003l34.457,59.495
			c0.985,1.703,0.987,3.803,0.003,5.506l-25,43.301C89.506,227.762,87.69,228.809,85.726,228.809z"/>
	</g>
</g>
</svg>
